<svg xmlns="http://www.w3.org/2000/svg" viewBox="0 0 200 200" role="img" aria-labelledby="title desc">
  <title id="title">Шиноманія - іконка шини</title>
  <desc id="desc">Стилізоване колесо з протектором у синіх кольорах.</desc>
  <defs>
    <linearGradient id="rim" x1="0%" y1="0%" x2="100%" y2="100%">
      <stop offset="0%" stop-color="#d9e6ff" />
      <stop offset="100%" stop-color="#9ab8e6" />
    </linearGradient>
    <linearGradient id="rubber" x1="0%" y1="0%" x2="100%" y2="0%">
      <stop offset="0%" stop-color="#0f305a" />
      <stop offset="100%" stop-color="#0c4e9a" />
    </linearGradient>
    <linearGradient id="highlight" x1="0%" y1="0%" x2="0%" y2="100%">
      <stop offset="0%" stop-color="#ffffff" stop-opacity="0.65" />
      <stop offset="100%" stop-color="#ffffff" stop-opacity="0" />
    </linearGradient>
  </defs>
  <circle cx="100" cy="100" r="84" fill="url(#rubber)" stroke="#0a2b4f" stroke-width="8" />
  <circle cx="100" cy="100" r="54" fill="url(#rim)" stroke="#0a2b4f" stroke-width="6" />
  <circle cx="100" cy="100" r="26" fill="#f5f8ff" stroke="#0a2b4f" stroke-width="4" />
  <g stroke="#e2ecff" stroke-width="7" stroke-linecap="round">
    <line x1="100" y1="16" x2="100" y2="46" />
    <line x1="154" y1="29" x2="138" y2="56" />
    <line x1="184" y1="84" x2="154" y2="96" />
    <line x1="184" y1="116" x2="154" y2="104" />
    <line x1="154" y1="171" x2="138" y2="144" />
    <line x1="100" y1="184" x2="100" y2="154" />
    <line x1="46" y1="171" x2="62" y2="144" />
    <line x1="16" y1="116" x2="46" y2="104" />
    <line x1="16" y1="84" x2="46" y2="96" />
    <line x1="46" y1="29" x2="62" y2="56" />
  </g>
  <g stroke="#0a2b4f" stroke-width="6" stroke-linecap="round" stroke-linejoin="round">
    <path d="M70 36c12 8 28 12 44 12" />
    <path d="M64 56c16 10 36 16 58 16" />
    <path d="M60 80c18 12 44 20 70 20" />
    <path d="M60 104c18 12 44 20 70 20" />
    <path d="M64 128c16 10 36 16 58 16" />
    <path d="M70 148c12 8 28 12 44 12" />
  </g>
  <path d="M32 56c-6 10-10 22-10 34 0 39.8 32.2 72 72 72 22.4 0 42.4-10.4 55.4-26.6" fill="none" stroke="url(#highlight)" stroke-width="10" stroke-linecap="round" />
</svg>
